HIERARCHY
ROOT Hips
{
  OFFSET 0 0 0
  CHANNELS 6 Xposition Yposition Zposition Zrotation Xrotation Yrotation
  JOINT Spine
  {
    OFFSET 0 10 0
    CHANNELS 3 Zrotation Xrotation Yrotation
    JOINT Neck
    {
      OFFSET 0 30 0
      CHANNELS 3 Zrotation Xrotation Yrotation
      JOINT Head
      {
        OFFSET 0 8 0
        CHANNELS 3 Zrotation Xrotation Yrotation
        End Site
        {
          OFFSET 0 10 0
        }
      }
    }
    JOINT LeftArm
    {
      OFFSET 15 30 0
      CHANNELS 3 Zrotation Xrotation Yrotation
      JOINT LeftForeArm
      {
        OFFSET 25 0 0
        CHANNELS 3 Zrotation Xrotation Yrotation
        JOINT LeftHand
        {
          OFFSET 25 0 0
          CHANNELS 3 Zrotation Xrotation Yrotation
          End Site
          {
            OFFSET 10 0 0
          }
        }
      }
    }
    JOINT RightArm
    {
      OFFSET -15 30 0
      CHANNELS 3 Zrotation Xrotation Yrotation
      JOINT RightForeArm
      {
        OFFSET -25 0 0
        CHANNELS 3 Zrotation Xrotation Yrotation
        JOINT RightHand
        {
          OFFSET -25 0 0
          CHANNELS 3 Zrotation Xrotation Yrotation
          End Site
          {
            OFFSET -10 0 0
          }
        }
      }
    }
  }
  JOINT LeftUpLeg
  {
    OFFSET 10 -10 0
    CHANNELS 3 Zrotation Xrotation Yrotation
    JOINT LeftLeg
    {
      OFFSET 0 -35 0
      CHANNELS 3 Zrotation Xrotation Yrotation
      JOINT LeftFoot
      {
        OFFSET 0 -40 0
        CHANNELS 3 Zrotation Xrotation Yrotation
        End Site
        {
          OFFSET 0 0 15
        }
      }
    }
  }
  JOINT RightUpLeg
  {
    OFFSET -10 -10 0
    CHANNELS 3 Zrotation Xrotation Yrotation
    JOINT RightLeg
    {
      OFFSET 0 -35 0
      CHANNELS 3 Zrotation Xrotation Yrotation
      JOINT RightFoot
      {
        OFFSET 0 -40 0
        CHANNELS 3 Zrotation Xrotation Yrotation
        End Site
        {
          OFFSET 0 0 15
        }
      }
    }
  }
}
MOTION
Frames:	19
Frame Time:	0.0416667
-58.5539 85.4188 -78.4175 0 0 -0 0 0 -0 0 0 -0 0 0 -0 -7.99999 4.82487e-07 1.75788e-05 -1.41036e-05 -4.82483e-07 -3.20679e-05 -1.70116e-20 6.7269e-14 1.4489e-05 7.99999 3.49319e-06 -1.73614e-05 1.1072e-05 -6.90829e-06 2.94356e-05 2.55508e-06 3.41509e-06 -1.20742e-05 0 0 -0 -0 -6.83019e-06 -0 0 6.83019e-06 -0 3.41509e-06 0 -0 2.27821e-05 -0.000116595 -7.14154e-06 -0.00290172 6.83019e-06 -3.03321e-21 
-51.4162 85.1876 -83.9653 -2.07979 0.400597 94.7629 1.6387 6.46772 0.74011 -5.87273 -10.0829 -4.80803 4.98368 17.4384 -5.76846 -91.5787 14.5374 -6.0582 12.7106 -2.52746 -22.4025 1.88172e-06 -7.39972 1.46107e-05 83.5391 16.6447 0.340864 -14.4535 -3.30236 25.6141 7.35393e-06 21.6752 -1.29929e-05 3.42775 -12.0189 -13.9342 0.0876664 23.2505 -0.429701 3.26097 -16.1292 11.6758 -8.91404 5.87944 -8.67215 2.27821e-05 -0.000116595 -7.14154e-06 -0.962936 -6.71404 -8.15666 
-50.4455 85.1682 -83.328 -2.37783 0.24136 96.0842 2.07887 4.45635 -0.0306041 -5.30524 -10.3737 -4.78834 5.68724 15.1722 -5.61177 -93.8424 4.01998 -4.76436 8.82103 -1.19518 -15.403 3.58537e-07 -1.41752 1.44934e-05 82.9398 15.5823 -0.132961 -13.278 -2.76664 23.4415 7.34096e-06 21.622 -1.29881e-05 3.33051 -11.3771 -18.1059 0.0848929 22.8261 -0.420325 4.4194 -17.3828 14.5799 -8.05592 6.80644 -10.0353 2.27821e-05 -0.000116595 -7.14154e-06 -1.13558 -8.34621 -7.75653 
-49.8022 85.1359 -82.7505 -2.74841 -0.0931391 95.9446 2.17318 3.39025 0.165275 -4.8969 -10.5916 -4.70006 6.33382 12.7751 -5.69987 -92.9583 0.607767 -2.1342 7.89103 -0.953198 -13.7563 -4.95912e-07 1.96028 1.44975e-05 84.5057 7.054 0.377488 -13.0845 -2.68317 23.086 8.63764e-06 26.7374 -1.35198e-05 3.91117 -10.9823 -19.8243 0.0810829 22.4538 -0.412728 5.28658 -18.2984 16.49 -7.31106 6.85015 -9.95957 2.27821e-05 -0.000116595 -7.14154e-06 -1.2004 -9.24768 -7.41111 
-49.3314 85.0924 -82.4618 -3.04391 -0.0460575 95.1813 2.00125 2.83988 0.583904 -4.9847 -10.8564 -4.63261 6.42089 12.1255 -5.76041 -91.5336 5.52389 0.56446 8.46126 -1.0983 -14.7651 9.78897e-07 -3.86511 1.4522e-05 85.3241 4.52755 0.324354 -12.7648 -2.54934 22.5009 8.78771e-06 27.3025 -1.35879e-05 3.65489 -10.1058 -22.9344 0.0734749 21.8187 -0.400471 6.98543 -19.5378 20.1822 -7.06976 6.57678 -9.24276 2.27821e-05 -0.000116595 -7.14154e-06 -1.24403 -8.7991 -8.06118 
-49.0086 85.0436 -82.3356 -3.23557 0.106943 94.5729 1.62249 2.66311 0.630543 -4.71928 -10.8609 -4.60961 5.99575 11.8732 -5.82529 -90.8515 8.22382 1.83449 9.2466 -1.31548 -16.1595 1.92759e-06 -7.57804 1.46167e-05 85.0764 11.4111 -1.256 -13.1638 -2.7171 23.2319 7.42839e-06 21.9797 -1.30206e-05 3.67692 -9.57048 -23.1742 0.0701141 21.3094 -0.397411 7.49888 -19.9043 21.1959 -7.19688 6.44853 -8.65864 2.27821e-05 -0.000116595 -7.14154e-06 -1.27649 -8.82427 -8.24613 
-48.8411 85.0232 -82.5296 -3.36624 -0.206007 94.8724 2.11383 2.75527 0.077078 -5.16801 -10.9929 -4.84578 6.20735 12.0733 -5.81152 -91.0192 9.74901 1.22046 9.77051 -1.47191 -17.0936 2.3657e-06 -9.27319 1.46809e-05 86.0291 3.70908 0.127895 -12.3133 -2.36624 21.6769 9.46551e-06 29.7838 -1.39119e-05 4.00309 -9.93251 -22.4766 0.0732211 21.6544 -0.397346 7.06383 -20.1143 19.8716 -6.90372 6.53884 -8.97697 2.27821e-05 -0.000116595 -7.14154e-06 -1.3224 -9.02487 -8.35358 
-48.8812 85.0729 -82.7001 -3.74955 -0.341053 95.1224 2.12178 3.21942 -0.40992 -5.08124 -11.5827 -5.06062 6.09024 13.1189 -5.90509 -91.5093 8.80206 -1.00653 10.3224 -1.64691 -18.0809 2.08469e-06 -8.18757 1.46382e-05 85.6925 5.98211 1.01395 -12.4481 -2.41937 21.9233 8.96997e-06 27.9812 -1.36725e-05 4.4254 -10.5172 -20.331 0.0719617 21.4144 -0.39618 5.99577 -19.1844 17.7832 -6.8707 6.24982 -9.27464 2.27821e-05 -0.000116595 -7.14154e-06 -1.325 -9.35469 -8.08112 
-49.4026 85.1069 -82.8296 -4.39788 -0.544236 95.2867 2.0546 5.21039 -0.965125 -5.97988 -12.7082 -5.67431 7.69282 14.5056 -6.35295 -90.0424 16.3411 -3.7753 11.4714 -2.04472 -20.1492 3.1108e-06 -12.1175 1.48192e-05 83.1713 19.8605 2.00498 -14.7187 -3.43058 26.1083 6.2493e-06 17.012 -1.26267e-05 4.75879 -12.1092 -18.3615 0.0747296 21.7284 -0.396873 5.02253 -18.7076 15.3912 -6.78577 5.01012 -9.52325 2.27821e-05 -0.000116595 -7.14154e-06 -1.25648 -8.7269 -8.2069 
-50.3369 85.1516 -82.8842 -5.46934 -0.244432 94.5238 1.58067 8.7323 -0.595988 -5.95564 -13.0951 -5.69038 7.05841 13.8067 -6.58905 -87.4242 22.0374 -9.2368 11.9881 -2.23889 -21.0856 3.25673e-06 -12.668 1.48505e-05 80.7514 22.811 8.00138 -14.9201 -3.53117 26.4832 6.30807e-06 17.2667 -1.2644e-05 4.60927 -13.9537 -16.2833 0.0748757 21.6799 -0.397473 4.42982 -17.7145 14.3687 -7.49323 2.73449 -8.91032 2.27821e-05 -0.000116595 -7.14154e-06 -1.08622 -7.84042 -7.89204 
-51.6781 84.8699 -82.8569 -7.9451 -0.377423 93.6116 1.78682 12.5973 -0.513508 -5.88993 -14.0222 -5.49663 6.07257 12.6599 -6.09952 -83.8554 26.9172 -15.809 13.0822 -2.68255 -23.0822 4.11781e-06 -15.8653 1.50628e-05 76.5978 26.8954 15.8265 -15.2852 -3.71413 27.1683 5.71366e-06 14.6599 -1.24805e-05 5.60674 -19.252 -10.3249 0.095126 24.0465 -0.44623 2.83522 -16.8487 9.80366 -7.81328 -1.64894 -8.3775 -3.7894e-05 0.000154183 -3.20951e-07 -0.869077 -6.29143 -7.85511 
-53.1533 83.7614 -82.8115 -10.2791 -0.0895621 93.3062 1.86767 17.9173 -0.645518 -6.78754 -15.0455 -5.61392 6.54228 9.75769 -5.97883 -78.0946 31.3544 -24.6686 14.112 -3.14102 -24.9801 5.2891e-06 -20.0542 1.54242e-05 73.0465 26.103 24.9326 -14.9712 -3.55514 26.5801 6.24164e-06 16.9788 -1.26245e-05 7.27111 -26.3181 -1.87101 0.155123 30.0314 -0.5781 1.12181 -18.4159 3.70442 -10.8093 -15.4737 -12.1788 -0.0538651 18.3689 0.332097 -1.25921 -13.414 -5.5126 
-54.36 81.672 -82.649 -11.1834 -0.190627 93.3957 2.57022 24.9838 -1.47773 -6.86739 -16.4959 -5.56909 6.14853 6.06858 -5.41688 -71.4376 32.9313 -35.1383 14.6075 -3.37631 -25.9004 5.37909e-06 -20.3676 1.54553e-05 67.9814 27.2964 34.3941 -15.1575 -3.64894 26.9284 5.30576e-06 12.8338 -1.23836e-05 12.0652 -33.2951 9.7844 0.30005 39.7188 -0.830894 -1.45155 -20.4684 -3.96784 -15.1789 -24.2394 -20.5247 -0.181299 32.173 0.629163 0.499623 -18.3072 1.43045 
-55.317 78.2568 -82.7602 -11.4621 -1.13121 93.0561 5.17641 32.5417 -2.32276 -7.64628 -17.9053 -5.29922 5.69411 0.816579 -4.62438 -62.7761 32.6774 -48.9123 13.7338 -2.96904 -24.2855 5.55916e-06 -20.9909 1.55189e-05 65.4243 23.6421 44.9262 -13.9681 -3.07397 24.7126 5.89118e-06 15.4455 -1.25266e-05 19.339 -40.9537 19.7312 0.6435 52.5252 -1.30456 -2.82018 -19.9476 -8.03631 -21.2751 -33.1906 -29.0418 -0.508264 48.4723 1.12924 2.40601 -21.7413 6.29409 
-56.056 73.5961 -82.6312 -11.1605 0.232949 91.7406 3.56753 39.5117 -1.32278 -8.50979 -19.3514 -5.61138 7.11406 -2.87024 -4.884 -58.053 29.1315 -59.5689 13.1481 -2.71077 -23.2031 5.93895e-06 -22.2884 1.56589e-05 62.6804 21.5869 54.941 -13.0544 -2.67068 23.031 5.85012e-06 15.2643 -1.25157e-05 25.9541 -47.0251 28.6978 1.48111 66.2296 -2.27128 -4.84654 -22.358 -12.4095 -31.7423 -41.3898 -37.0621 -1.41592 65.5452 2.19965 4.22645 -23.9772 10.1256 
-56.2714 68.2233 -82.5549 -8.60825 0.0826375 92.6926 5.8355 47.702 -3.34451 -9.21238 -21.0387 -6.00855 7.45218 -6.50426 -4.83413 -56.7922 24.7038 -69.6494 10.8259 -1.81609 -18.985 5.89072e-06 -22.1249 1.56407e-05 64.8283 17.9967 62.6686 -11.6605 -2.11461 20.4917 6.79139e-06 19.3338 -1.27958e-05 33.3702 -51.2854 34.6604 4.82595 80.1041 -5.74192 -7.27821 -23.9891 -17.3115 -41.8474 -43.7613 -45.8767 -5.13751 80.6044 6.05501 6.00615 -27.0064 12.8457 
-56.0238 62.4407 -82.348 -5.39696 -0.588371 94.291 9.17566 53.6103 -6.37345 -9.43278 -21.9238 -6.37693 8.35968 -8.33651 -4.74221 -58.1896 22.8517 -74.9074 10.3239 -1.64717 -18.0834 5.7703e-06 -21.7151 1.55958e-05 74.0546 14.7548 65.1695 -10.3846 -1.66714 18.1925 8.77658e-06 27.2608 -1.35828e-05 44.9157 -53.3125 44.3897 163.578 86.2338 -164.624 -9.67081 -23.2946 -23.2557 -52.611 -42.6314 -56.2904 -168.602 84.4511 169.65 7.50341 -28.6902 15.136 
-55.428 56.89 -82.1308 -1.31994 -0.726834 95.1795 11.3298 58.4968 -7.83181 -9.5946 -21.5386 -6.67241 8.88859 -10.3528 -5.50472 -57.7916 23.0171 -78.3792 10.4077 -1.67476 -18.2338 4.87601e-06 -18.5997 1.52875e-05 82.7696 11.9238 64.4839 -10.312 -1.64328 18.0625 1.03624e-05 32.8871 -1.43785e-05 57.4593 -51.4883 54.2538 175.299 74.3097 -176.437 -10.1824 -17.4906 -31.0699 -63.2353 -37.0065 -65.3736 -175.8 71.2558 177.053 10.3371 -28.005 21.0739 
-54.7979 52.4786 -81.9778 0.847132 -0.344727 95.6896 11.4071 60.2956 -7.92042 -9.31016 -21.0239 -6.56287 8.92171 -11.384 -5.70417 -63.2869 22.1145 -78.7119 7.89514 -0.954376 -13.7635 3.10088e-06 -12.08 1.48171e-05 86.0635 11.1342 62.4068 -9.73948 -1.46241 17.0382 1.00266e-05 31.7491 -1.41989e-05 66.0719 -50.1001 60.6309 176.57 65.6877 -177.786 -9.77398 -14.2523 -35.4222 -70.4806 -30.7901 -71.3462 -176.734 61.6732 178.146 13.2743 -30.1786 24.9814 
